<?xml version="1.0" encoding="UTF-8"?>
<svg id="Layer_1" xmlns="http://www.w3.org/2000/svg" version="1.1" viewBox="0 0 110 135">
  <!-- Generator: Adobe Illustrator 29.0.0, SVG Export Plug-In . SVG Version: 2.1.0 Build 186)  -->
  <defs>
    <style>
      .st0 {
        fill: #fff;
      }
    </style>
  </defs>
  <path class="st0" d="M98.8,91.2v3.1c0,1.3-.8,2.5-2,2.9-1.2.5-2.6,0-3.4-.8l-8.2-9.2c-10-11.3-24.4-17.8-39.4-17.8v12.5c0,1.3-.8,2.4-1.9,2.9-1.2.5-2.5.2-3.4-.7l-28.1-28.1c-1.2-1.2-1.2-3.2,0-4.4l28.1-28.1c.9-.9,2.2-1.2,3.4-.7s1.9,1.6,1.9,2.9v12.5c14.1,0,27.6,5.6,37.5,15.6,10,10,15.6,23.5,15.6,37.5h0Z"/>
</svg>