<?xml version="1.0" encoding="UTF-8"?>
<svg id="Layer_1" xmlns="http://www.w3.org/2000/svg" version="1.1" viewBox="0 0 110 135">
  <!-- Generator: Adobe Illustrator 29.0.0, SVG Export Plug-In . SVG Version: 2.1.0 Build 186)  -->
  <defs>
    <style>
      .st0 {
        fill: #fff;
        fill-rule: evenodd;
      }
    </style>
  </defs>
  <path class="st0" d="M61.8,34.6c9.1,1.5,17.1,6,23.1,12.4,6.9,7.3,11.1,17.2,11.1,28s-4.6,21.6-12,29-17.7,12-29,12-21.6-4.6-29-12-12-17.7-12-29v-4.8c0-1.1.9-1.9,1.9-1.9h9.6c1.1,0,1.9.9,1.9,1.9v4.8c0,7.6,3.1,14.5,8.1,19.5s11.9,8.1,19.5,8.1,14.5-3.1,19.5-8.1,8.1-11.9,8.1-19.5-2.7-13.6-7.1-18.5c-3.1-3.4-7-6-11.5-7.6l3.5,3.3c.8.7.8,1.9,0,2.7l-6.7,6.9c-.7.8-1.9.8-2.7,0l-20.5-19.8c-.8-.7-.8-1.9,0-2.7,6.7-6.7,13.7-13.3,20.6-19.9.8-.7,2-.7,2.7,0l6.7,6.9c.7.8.7,2,0,2.7l-5.6,5.4h0l-.2.2Z"/>
</svg>