<?xml version="1.0" encoding="UTF-8"?>
<svg id="Layer_1" xmlns="http://www.w3.org/2000/svg" version="1.1" viewBox="0 0 100 125">
  <!-- Generator: Adobe Illustrator 29.0.0, SVG Export Plug-In . SVG Version: 2.1.0 Build 186)  -->
  <defs>
    <style>
      .st0 {
        fill: #fff;
      }
    </style>
  </defs>
  <path class="st0" d="M69.1,58.4l-26-16.1c-3.2-2-7.4.3-7.4,4.1v32.1c0,3.8,4.1,6.1,7.4,4.1l26-16.1c3.1-1.8,3.1-6.2,0-8.1Z"/>
  <path class="st0" d="M50,15C23.8,15,2.5,36.3,2.5,62.5s21.3,47.5,47.5,47.5,47.5-21.3,47.5-47.5S76.2,15,50,15ZM50,100.8c-21.1,0-38.3-17.2-38.3-38.3S28.9,24.2,50,24.2s38.3,17.2,38.3,38.3-17.2,38.3-38.3,38.3Z"/>
</svg>